<?xml version="1.0" encoding="UTF-8" standalone="no"?>
<svg
   xmlns:dc="http://purl.org/dc/elements/1.1/"
   xmlns:cc="http://creativecommons.org/ns#"
   xmlns:rdf="http://www.w3.org/1999/02/22-rdf-syntax-ns#"
   xmlns:svg="http://www.w3.org/2000/svg"
   xmlns="http://www.w3.org/2000/svg"
   xmlns:sodipodi="http://sodipodi.sourceforge.net/DTD/sodipodi-0.dtd"
   xmlns:inkscape="http://www.inkscape.org/namespaces/inkscape"
   version="1.1"
   id="svg833"
   xml:space="preserve"
   width="565.64917"
   height="734.94531"
   viewBox="0 0 565.64917 734.94531"
   sodipodi:docname="climber.svg"
   inkscape:version="1.0.1 (c497b03c, 2020-09-10)"><metadata
     id="metadata839"><rdf:RDF><cc:Work
         rdf:about=""><dc:format>image/svg+xml</dc:format><dc:type
           rdf:resource="http://purl.org/dc/dcmitype/StillImage" /><dc:title></dc:title></cc:Work></rdf:RDF></metadata><defs
     id="defs837"><clipPath
       clipPathUnits="userSpaceOnUse"
       id="clipPath849"><path
         d="M 0,792 H 612 V 0 H 0 Z"
         id="path847" /></clipPath></defs><sodipodi:namedview
     pagecolor="#ffffff"
     bordercolor="#666666"
     borderopacity="1"
     objecttolerance="10"
     gridtolerance="10"
     guidetolerance="10"
     inkscape:pageopacity="0"
     inkscape:pageshadow="2"
     inkscape:window-width="1440"
     inkscape:window-height="900"
     id="namedview835"
     showgrid="false"
     lock-margins="true"
     inkscape:zoom="0.70184151"
     inkscape:cx="201.98231"
     inkscape:cy="371.0148"
     inkscape:window-x="0"
     inkscape:window-y="0"
     inkscape:window-maximized="0"
     inkscape:current-layer="g845"
     fit-margin-top="10"
     fit-margin-left="10"
     fit-margin-right="10"
     fit-margin-bottom="10" /><g
     id="g841"
     inkscape:groupmode="layer"
     inkscape:label="Sherdec Logo"
     transform="matrix(1.3333333,0,0,-1.3333333,-118.27563,1035.9322)"><g
       id="g843"><g
         id="g845"
         clip-path="url(#clipPath849)"><g
           id="g1023"
           transform="translate(321.6953,316.7656)"><path
             d="m 0,0 c -4.524,0.148 -4.965,4.049 -5.201,6.144 -0.053,0.45 -0.102,0.884 -0.17,1.264 -0.064,0.071 -0.129,0.15 -0.197,0.23 -0.374,0.434 -1.253,1.457 -1.53,1.685 -0.577,0.412 -0.869,1.061 -0.839,1.769 0.063,1.525 0.003,2.336 -0.092,3.56 -0.034,0.455 -0.072,0.955 -0.108,1.551 -0.036,0.578 0.17,1.145 0.565,1.567 0.099,0.104 0.199,0.193 0.3,0.267 -0.205,1.228 -0.54,2.536 -0.994,3.896 -0.091,0.271 -0.125,0.558 -0.1,0.842 0.133,1.561 0.265,3.121 0.414,4.679 0.123,1.271 0.236,2.481 0.335,3.683 0.036,0.449 0.216,0.874 0.512,1.212 1.105,1.265 2.084,2.714 3.122,4.249 0.796,1.181 1.602,2.375 2.485,3.507 -1.604,-0.236 -3.201,-0.485 -4.701,-0.767 -0.151,-0.027 -0.304,-0.038 -0.454,-0.033 -0.412,0.012 -0.815,0.147 -1.154,0.39 -0.462,0.331 -0.773,0.84 -0.853,1.407 -0.037,0.257 -0.086,0.517 -0.146,0.777 -0.129,0.589 0,1.207 0.359,1.691 0.114,0.159 0.252,0.298 0.404,0.416 -0.311,0.173 -0.579,0.426 -0.771,0.741 -0.366,0.601 -0.407,1.346 -0.111,1.981 0.112,0.231 0.211,0.472 0.303,0.708 0.319,0.841 1.138,1.379 2.026,1.35 0.051,-0.004 0.104,-0.007 0.153,-0.012 1.088,-0.115 2.46,-0.2 4.077,-0.253 2.028,-0.066 4.097,-0.074 5.857,-0.058 -1.011,1.153 -2.03,2.349 -2.879,3.748 -0.785,0.09 -1.433,0.423 -1.931,0.989 -0.117,0.136 -0.217,0.285 -0.297,0.445 -0.553,1.103 -0.786,2.575 -0.675,3.977 -3.924,2.824 -1.736,8.961 -0.499,12.426 0.182,0.51 0.355,0.996 0.506,1.447 0.129,0.465 0.49,1.255 1.476,1.625 0.152,1.113 0.274,2.229 0.39,3.32 0.373,3.391 0.753,6.899 2.003,10.531 0.227,0.668 0.776,1.174 1.459,1.351 0.343,0.088 0.689,0.126 1.035,0.116 C 5.01,88.386 5.707,88.011 6.27,87.708 6.42,87.626 6.582,87.537 6.761,87.458 7.404,87.16 7.856,86.556 7.96,85.854 8.58,81.599 8.115,78.491 7.663,75.483 7.513,74.487 7.362,73.464 7.244,72.39 c 0.343,-0.387 0.582,-0.805 0.761,-1.178 0.246,0.042 0.503,0.09 0.751,0.139 0.996,0.187 2.127,0.4 3.196,0.365 3.117,-0.101 3.876,-2.261 4.06,-3.185 0.241,-1.234 -0.165,-2.32 -0.462,-3.113 -0.111,-0.297 -0.298,-0.793 -0.282,-0.952 0.082,-0.404 0.444,-0.753 1.075,-1.334 0.358,-0.327 0.753,-0.69 1.116,-1.123 0.372,0.133 0.766,0.257 1.195,0.353 0.147,0.281 0.316,0.533 0.492,0.76 -0.099,0.856 0.036,1.683 0.153,2.417 0.044,0.282 0.106,0.669 0.122,0.927 -0.317,0.279 -0.549,0.648 -0.652,1.065 -0.144,0.555 -0.052,1.144 0.253,1.632 0.107,0.167 0.351,0.559 -0.221,1.415 -0.585,0.879 -0.426,2.059 0.375,2.751 0.416,0.362 0.831,0.78 1.269,1.224 1.614,1.634 3.62,3.666 6.921,3.559 0.508,-0.017 1.037,-0.088 1.569,-0.208 2.076,-0.471 3.75,-1.671 4.844,-3.471 1.382,-2.273 1.683,-5.281 0.849,-8.467 -0.099,-0.376 -0.3,-0.719 -0.581,-0.987 -0.714,-0.677 -1.568,-0.939 -2.191,-1.131 -0.095,-0.029 -0.215,-0.067 -0.325,-0.104 -0.009,-0.142 -0.015,-0.305 -0.018,-0.433 -0.006,-0.256 -0.016,-0.54 -0.049,-0.838 0.054,-0.054 0.108,-0.107 0.163,-0.161 1.595,-1.59 3.406,-3.393 2.976,-7.505 -0.371,-3.558 -1.988,-7.099 -4.318,-9.473 -0.723,-0.734 -1.507,-1.397 -2.266,-2.038 -1.031,-0.867 -2.029,-1.71 -2.832,-2.692 1.122,-0.424 2.158,-1.19 2.945,-2.208 1.14,-1.473 1.577,-3.287 1.196,-4.97 -0.131,-0.584 -0.504,-1.084 -1.027,-1.373 -0.074,-0.042 -0.149,-0.077 -0.227,-0.11 0.058,-0.154 0.108,-0.319 0.149,-0.492 0.385,-1.652 0.089,-3.286 -0.838,-4.597 -0.552,-0.784 -1.302,-1.417 -2.177,-1.861 0.264,-0.68 0.607,-1.449 0.93,-2.167 1.199,-2.68 2.554,-5.713 2.174,-8.415 -0.449,-3.194 -3.281,-5.519 -6.593,-5.41 -1.805,0.058 -3.487,0.847 -4.741,2.221 -0.197,0.217 -0.348,0.469 -0.441,0.746 -1.223,3.633 -0.554,8.401 0.089,13.011 0.163,1.162 0.321,2.294 0.446,3.38 -0.163,-0.123 -0.326,-0.246 -0.495,-0.363 -0.49,-0.346 -1.01,-0.642 -1.514,-0.928 -0.706,-0.4 -1.504,-0.855 -1.799,-1.249 C 12.23,24.434 11.737,22.092 11.215,19.617 10.46,16.021 9.602,11.944 6.648,9.4 6.127,8.949 5.644,8.738 5.321,8.596 5.304,8.586 5.28,8.579 5.264,8.57 4.778,7.905 4.538,6.842 4.285,5.722 3.878,3.906 3.415,1.851 1.675,0.458 1.314,0.167 0.866,0.006 0.405,-0.003 0.266,-0.006 0.132,-0.006 0,0"
             style="fill:#ffffff;fill-opacity:1;fill-rule:evenodd;stroke:none"
             id="path1025" /></g><g
           id="g1027"
           transform="translate(345.668,337.2852)"><path
             d="M 0,0 C 0.655,-1.96 1.885,-4.123 1.425,-6.209 1.138,-7.522 -0.082,-8.823 -1.255,-8.957 -7.886,-9.723 -4.449,1.145 -4.091,6.643 -3.325,6.448 -2.667,6.164 -1.931,5.939 -1.377,4.178 -0.735,2.192 0,0 M -3.721,11.707 C -2.49,10.54 -2.844,8.09 -2.025,6.59 -2.388,6.019 -3.471,6.937 -4.041,7.118 c 0.255,1.652 0.021,2.903 0.32,4.589 m 0.878,2.304 c 0.705,-0.49 0.879,-1.407 1.73,-1.777 0.74,-0.323 0.64,0.397 1.152,0.357 0.448,-0.792 1.318,-1.241 1.694,-2.088 0.488,-2.272 -1.434,-4.64 -2.826,-4.172 -0.596,0.203 -2.263,5.853 -2.165,6.765 0.041,0.375 0.363,0.761 0.415,0.915 m 1.575,2.865 c 0.949,-0.726 0.985,-2.188 0.882,-3.761 -1.972,-0.081 -2.747,3.33 -0.882,3.761 M 3.06,14.031 c -1.42,0.541 -2.877,2.28 -3.581,3.882 1.726,-0.295 3.166,-2.048 3.581,-3.882 m -17.107,17.89 c -1.346,1.557 -2.513,3.259 -3.277,5.285 0.33,0.485 1.128,0.391 1.801,0.448 0.702,1.816 -0.151,3.506 0.085,5.414 1.039,-3.202 1.818,-6.612 3.843,-9.011 -0.53,-1.065 -1.496,-1.592 -2.452,-2.136 m 3.412,15.907 c -0.064,-0.692 -0.045,-1.488 -0.637,-1.528 -0.81,0.068 -0.576,0.978 -1.148,1.236 -1.335,0.591 -2.177,-0.205 -3.378,-0.285 0.301,1.937 3.873,1.488 5.163,0.577 M -22.178,35.001 c -0.379,0.482 -0.256,1.659 0.213,2.052 0.887,-0.071 0.67,-2.163 -0.213,-2.052 M 2.207,10.452 c -0.302,1.284 -1.572,1.679 -2.103,2.771 0.669,0.886 -0.519,2.267 -0.176,2.89 1.281,-0.794 1.801,-2.197 3.381,-2.747 0.702,3.112 -3.117,6.132 -5.582,4.571 1.185,4.087 4.665,5.883 7.088,8.348 1.953,1.985 3.403,5.098 3.73,8.222 0.401,3.845 -1.571,4.81 -3.427,6.893 0.579,0.594 0.073,2.201 0.643,3.122 0.658,0.855 2.105,0.731 2.866,1.457 1.215,4.649 -0.461,8.528 -4.128,9.36 -3.915,0.886 -5.628,-2.131 -7.924,-4.117 0.632,-0.948 1.112,-2.325 0.253,-3.694 1.487,-0.837 0.165,-3.189 0.452,-4.83 0.324,-0.297 0.86,-0.056 0.932,-0.257 -0.921,-0.529 -1.723,-1.203 -2.017,-2.5 -1.436,-0.069 -2.466,-0.638 -3.618,-1.058 -0.55,1.952 -2.912,2.546 -3.341,4.653 -0.283,1.392 1.002,2.75 0.744,4.069 -0.577,2.934 -5.404,0.597 -7.239,0.915 -0.517,0.833 -0.642,1.981 -1.665,2.406 0.379,4.942 1.681,8.331 0.836,14.105 -0.897,0.411 -1.467,0.94 -2.317,0.719 -1.728,-5.032 -1.695,-9.854 -2.509,-14.886 -0.253,-0.403 -1.223,0.085 -1.328,-0.499 -1.284,-3.894 -4.379,-10.453 0.326,-12.153 -0.465,-1.356 -0.307,-3.153 0.202,-4.168 0.486,-0.552 1.151,-0.089 1.701,-0.496 1.507,-2.915 4.062,-4.985 5.901,-7.631 -3.851,-0.13 -10.497,-0.194 -14.524,0.232 -0.111,-0.286 -0.229,-0.573 -0.359,-0.851 4.49,-0.169 11.3,-0.073 15.277,-0.219 -1.146,-1.897 -4.422,-1.559 -6.749,-2.006 -2.44,-0.469 -5.947,-1.058 -8.261,-1.262 0.068,-0.308 0.126,-0.62 0.171,-0.93 3.757,0.705 7.991,1.199 11.718,1.812 -4.856,-2.473 -7.1,-8.171 -10.659,-12.244 -0.102,-1.231 -0.219,-2.466 -0.338,-3.713 -0.147,-1.552 -0.281,-3.105 -0.412,-4.658 0.48,-1.437 0.869,-2.92 1.103,-4.414 0.596,0.431 1.536,0.686 2.234,1.157 2.916,1.959 3.697,6.21 5.455,9.477 -0.367,-5.01 -1.093,-11.116 -3.69,-13.965 -0.783,1.335 -2.043,1.762 -3.791,1.501 0,-0.018 -1.079,-0.002 -1.078,-0.021 0.137,-2.239 0.296,-3.098 0.202,-5.329 0.514,-0.367 1.983,-2.163 2.399,-2.611 0.696,-2.566 -0.143,-6.373 3.807,-6.298 2.183,1.75 1.507,5.706 3.379,7.94 0.407,0.484 0.938,0.438 1.534,0.953 4.301,3.708 3.316,12.079 6.304,16.086 0.838,1.126 2.583,1.787 3.783,2.634 1.363,0.963 2.512,2.178 4.066,2.289 -0.045,-6.057 -2.588,-14.356 -0.905,-19.362 2.633,-2.883 7.215,-1.45 7.709,2.067 0.505,3.585 -3.376,8.95 -3.564,11.695 2.284,0.255 4.092,2.073 3.508,4.575"
             style="fill:#505050;fill-opacity:1;fill-rule:evenodd;stroke:none"
             id="path1029" /></g></g></g></g></svg>
