<?xml version="1.0" encoding="UTF-8" standalone="no"?>
<svg
   xmlns:dc="http://purl.org/dc/elements/1.1/"
   xmlns:cc="http://creativecommons.org/ns#"
   xmlns:rdf="http://www.w3.org/1999/02/22-rdf-syntax-ns#"
   xmlns:svg="http://www.w3.org/2000/svg"
   xmlns="http://www.w3.org/2000/svg"
   xmlns:sodipodi="http://sodipodi.sourceforge.net/DTD/sodipodi-0.dtd"
   xmlns:inkscape="http://www.inkscape.org/namespaces/inkscape"
   version="1.1"
   id="svg833"
   xml:space="preserve"
   width="565.64917"
   height="734.94531"
   viewBox="0 0 565.64917 734.94531"
   sodipodi:docname="s.svg"
   inkscape:version="1.0.1 (c497b03c, 2020-09-10)"><metadata
     id="metadata839"><rdf:RDF><cc:Work
         rdf:about=""><dc:format>image/svg+xml</dc:format><dc:type
           rdf:resource="http://purl.org/dc/dcmitype/StillImage" /><dc:title></dc:title></cc:Work></rdf:RDF></metadata><defs
     id="defs837"><clipPath
       clipPathUnits="userSpaceOnUse"
       id="clipPath849"><path
         d="M 0,792 H 612 V 0 H 0 Z"
         id="path847" /></clipPath></defs><sodipodi:namedview
     pagecolor="#ffffff"
     bordercolor="#666666"
     borderopacity="1"
     objecttolerance="10"
     gridtolerance="10"
     guidetolerance="10"
     inkscape:pageopacity="0"
     inkscape:pageshadow="2"
     inkscape:window-width="1440"
     inkscape:window-height="900"
     id="namedview835"
     showgrid="false"
     lock-margins="true"
     fit-margin-top="10"
     fit-margin-left="10"
     fit-margin-right="10"
     fit-margin-bottom="10"
     inkscape:zoom="0.68231633"
     inkscape:cx="135.22184"
     inkscape:cy="420.06065"
     inkscape:window-x="0"
     inkscape:window-y="0"
     inkscape:window-maximized="0"
     inkscape:current-layer="g845" /><g
     id="g841"
     inkscape:groupmode="layer"
     inkscape:label="Sherdec Logo"
     transform="matrix(1.3333333,0,0,-1.3333333,-118.27563,1035.9322)"><g
       id="g843"><g
         id="g845"
         clip-path="url(#clipPath849)"><g
           id="g851"
           transform="translate(281.6348,233.2402)"><path
             d="m 0,0 c -29.858,0 -56.094,5.186 -77.979,15.406 -27.822,12.998 -48.809,33.905 -62.376,62.139 l -12.069,25.167 116.814,73.486 10.388,-41.993 c 8.034,-32.459 27.203,-46.309 64.101,-46.309 3.225,0 6.63,0.113 10.115,0.334 21.343,1.356 38.201,7.31 50.105,17.694 10.013,8.744 13.958,17.68 13.182,29.878 -1.207,19.001 -19.083,40.078 -51.694,60.95 l -92.042,59.343 c -53.048,33.788 -81.377,73.434 -84.199,117.845 -1.528,24.067 2.738,47.139 12.681,68.576 9.967,21.484 25.404,40.777 45.883,57.34 6.662,5.393 13.123,9.754 20.317,13.718 1.991,1.132 17.761,9.9 39.486,16.133 l 5.297,1.668 0.399,-0.133 c 13.036,3.298 25.701,4.967 37.718,4.967 1.742,0 3.495,-0.036 5.21,-0.105 51.121,-2.096 79.153,-14.584 107.81,-34.055 33.944,-23.062 52.195,-47.58 52.954,-48.613 l 7.207,-9.788 -63.36,-82.636 -10.793,25.694 c -0.033,0.082 -4.104,9.666 -9.325,17.48 -0.475,0.711 -1.074,1.648 -1.794,2.778 -6.171,9.678 -24.952,39.125 -52.034,46.383 -12.031,3.224 -23.501,4.857 -34.091,4.857 -13.908,0 -21.963,-2.875 -23.449,-3.457 -5.941,-2.653 -11.224,-5.981 -15.705,-9.89 -10.015,-8.743 -13.957,-17.681 -13.183,-29.878 1.21,-19.002 19.084,-40.078 51.696,-60.95 l 92.033,-59.34 C 192.354,260.901 220.688,221.25 223.508,176.84 225.032,152.865 220.76,130.145 210.812,109.309 201.021,88.8 185.629,69.969 165.066,53.337 126.436,22.085 76.855,4.334 17.704,0.575 11.695,0.193 5.74,0 0.003,0 Z"
             style="fill:#009e44;fill-opacity:1;fill-rule:nonzero;stroke:none"
             id="path853" /></g><g
           id="g855"
           transform="translate(281.6348,241.3262)"><path
             d="m 0,0 c -28.666,0 -53.75,4.931 -74.556,14.647 -26.087,12.187 -45.772,31.808 -58.51,58.315 l -8.948,18.658 101.241,63.691 7.701,-31.133 c 8.977,-36.279 31.168,-52.455 71.951,-52.454 3.397,0 6.974,0.117 10.626,0.351 23.161,1.471 41.636,8.089 54.909,19.67 11.963,10.443 16.879,21.697 15.939,36.485 -1.397,21.984 -20.04,44.61 -55.408,67.248 l -92.044,59.346 c -50.742,32.304 -77.834,69.841 -80.484,111.543 -1.442,22.707 2.577,44.461 11.947,64.659 9.441,20.355 24.121,38.678 43.633,54.457 6.298,5.096 12.395,9.211 19.177,12.946 1.423,0.813 16.606,9.362 37.888,15.451 l 2.876,0.91 0.187,-0.063 c 13.189,3.523 25.962,5.309 38.002,5.309 1.632,0 3.273,-0.033 4.878,-0.099 49.419,-2.024 75.407,-13.509 103.599,-32.665 32.809,-22.29 50.259,-45.731 50.985,-46.718 l 3.603,-4.893 -51.185,-66.755 -5.395,12.845 c -0.043,0.099 -4.383,10.349 -10.056,18.841 -0.451,0.675 -1.019,1.564 -1.701,2.635 -6.589,10.333 -26.644,41.774 -56.759,49.844 -12.714,3.408 -24.889,5.136 -36.185,5.136 -15.523,0 -24.674,-3.32 -26.589,-4.092 C 14.584,451.122 8.566,447.337 3.44,442.864 -8.521,432.42 -13.437,421.168 -12.496,406.38 -11.1,384.393 7.542,361.769 42.91,339.131 l 92.043,-59.346 C 185.696,247.479 212.789,209.942 215.436,168.241 218.317,122.896 199.659,83.632 159.981,51.537 122.68,21.361 74.637,4.209 17.191,0.561 11.352,0.19 5.567,0 0,0"
             style="fill:#f5f5f5;fill-opacity:1;fill-rule:nonzero;stroke:none"
             id="path857" /></g><g
           id="g859"
           transform="translate(489.0029,409.0547)"><path
             d="m 0,0 c -2.478,38.979 -28.316,74.395 -76.798,105.26 l -92.019,59.332 c -37.661,24.103 -57.548,48.848 -59.118,73.546 -1.1,17.306 4.841,31.001 18.691,43.091 5.823,5.081 12.519,9.278 20.035,12.602 4.414,1.808 27.962,10.061 68.027,-0.677 36.102,-9.673 57.884,-48.002 63.093,-55.796 6.201,-9.283 10.789,-20.204 10.789,-20.204 l 39.008,50.877 c 0,0 -16.977,23.056 -49.018,44.824 -27.766,18.867 -52.948,29.371 -99.384,31.273 -15.279,0.626 -30.128,-2.009 -42.78,-5.579 -0.008,0.003 -0.017,0.007 -0.025,0.011 -0.154,-0.047 -0.302,-0.097 -0.453,-0.146 -21.146,-6.033 -36.025,-14.617 -36.278,-14.762 -6.588,-3.623 -12.354,-7.571 -18.056,-12.185 -37.523,-30.347 -55.299,-69.738 -52.595,-112.315 2.478,-38.981 28.316,-74.395 76.796,-105.26 l 92.022,-59.332 c 37.659,-24.103 57.547,-48.847 59.119,-73.545 1.099,-17.306 -4.843,-31.001 -18.694,-43.093 -14.646,-12.776 -34.736,-20.061 -59.711,-21.648 -51.405,-3.266 -80.3,15.238 -90.941,58.232 l -5.014,20.274 -85.668,-53.893 5.826,-12.151 c 11.909,-24.785 30.294,-43.115 54.645,-54.49 23.661,-11.053 53.206,-15.543 87.81,-13.345 55.745,3.543 102.248,20.095 138.218,49.196 C -14.95,-79.555 2.703,-42.577 0,0"
             style="fill:#009e44;fill-opacity:1;fill-rule:nonzero;stroke:none"
             id="path861" /></g></g></g></g></svg>
